<svg width="29" height="28" viewBox="0 0 29 28" fill="none" xmlns="http://www.w3.org/2000/svg">
<path d="M0 15.4H29C28.9125 16.366 28.7084 17.304 28.4168 18.2H17.4233V21H21.7974V23.8H18.8813V26.6H15.2363V28H14.5073C6.95475 28 0.72901 22.47 0 15.4ZM29 12.6H0C0.72901 5.53 6.95475 0 14.5073 0C16.8693 0 19.1 0.546 21.0684 1.512V4.2H23.9844V7H26.1714V9.8H28.4168C28.7084 10.696 28.9125 11.634 29 12.6ZM14.5073 6.65C14.5073 6.19037 14.413 5.73525 14.2298 5.31061C14.0466 4.88597 13.7782 4.50013 13.4397 4.17513C13.1012 3.85012 12.6994 3.59231 12.2571 3.41642C11.8149 3.24053 11.3409 3.15 10.8622 3.15C9.89551 3.15 8.96838 3.51875 8.2848 4.17513C7.60122 4.8315 7.21719 5.72174 7.21719 6.65C7.21719 7.57826 7.60122 8.4685 8.2848 9.12487C8.96838 9.78125 9.89551 10.15 10.8622 10.15C11.3409 10.15 11.8149 10.0595 12.2571 9.88358C12.6994 9.70769 13.1012 9.44988 13.4397 9.12487C13.7782 8.79987 14.0466 8.41403 14.2298 7.98939C14.413 7.56475 14.5073 7.10963 14.5073 6.65Z" fill="url(#paint0_radial_1048_18)"/>
<defs>
<radialGradient id="paint0_radial_1048_18" cx="0" cy="0" r="1" gradientUnits="userSpaceOnUse" gradientTransform="translate(7.25 14) rotate(62.6223) scale(15.7659 16.3289)">
<stop stop-color="currentColor"/>
<stop offset="1" stop-color="#68716A"/>
</radialGradient>
</defs>
</svg>
