<svg width="26" height="24" viewBox="0 0 26 24" fill="none" xmlns="http://www.w3.org/2000/svg">
<path fill-rule="evenodd" clip-rule="evenodd" d="M23.5042 2.29673C24.9236 3.36934 26 4.96365 26 7.09635C26 10.2224 24.2964 12.8559 21.9294 14.6401C19.555 16.4306 16.3732 17.4886 13 17.4886H12.9773C12.2106 17.4889 11.4542 17.2944 10.7669 16.9203C10.0796 16.5462 9.47998 16.0025 9.01463 15.3316C8.54927 14.6606 8.23076 13.8805 8.08385 13.0519C7.93695 12.2233 7.96562 11.3686 8.16764 10.5542C7.28756 10.9011 6.45039 11.368 5.67566 11.944C3.81093 13.3484 2.84257 15.1263 2.84257 16.9043C2.84257 17.716 3.2121 18.4485 4.10466 19.1246C5.02566 19.8195 6.3863 20.3454 7.99329 20.6313C9.58513 20.913 11.3153 20.9443 12.8977 20.7294C14.5009 20.5144 15.8426 20.0679 16.7219 19.4856C17.0449 19.2769 17.4296 19.217 17.7925 19.3189C18.1554 19.4208 18.4671 19.6763 18.6599 20.0299C18.8526 20.3835 18.9109 20.8065 18.8219 21.2072C18.733 21.6078 18.504 21.9535 18.1848 22.1693C16.8394 23.0603 15.0637 23.5925 13.2426 23.8387C11.346 24.0876 9.42727 24.0483 7.54038 23.7218C5.6984 23.3942 3.88484 22.7557 2.49577 21.7039C1.07449 20.6313 0 19.0349 0 16.9043C0 13.7783 1.70364 11.1447 4.07055 9.36053C6.43367 7.5784 9.5965 6.52249 12.9507 6.51205H13.0265C13.7907 6.52014 14.5428 6.7216 15.225 7.10086C15.9071 7.48013 16.5009 8.02704 16.9605 8.69932C17.4201 9.37161 17.7331 10.1513 17.8754 10.978C18.0177 11.8048 17.9855 12.6565 17.7812 13.4673C18.7287 13.0917 19.5872 12.6138 20.3243 12.0567C22.1891 10.6523 23.1574 8.8743 23.1574 7.09635C23.1574 6.28459 22.7879 5.55213 21.8953 4.87601C20.9762 4.1811 19.6137 3.65523 18.0067 3.36934C16.3837 3.08941 14.7335 3.0564 13.1023 3.27126C11.501 3.4862 10.1574 3.93277 9.27813 4.51499C8.95514 4.72375 8.57039 4.78368 8.20749 4.68177C7.84459 4.57987 7.53288 4.32435 7.34012 3.97076C7.14737 3.61717 7.08913 3.19409 7.17809 2.79348C7.26704 2.39288 7.49598 2.04712 7.81516 1.83137C9.16064 0.940313 10.9363 0.40818 12.7593 0.161939C14.6553 -0.0878348 16.5734 -0.048511 18.4596 0.278799C20.3035 0.606426 22.1152 1.24498 23.5042 2.29673ZM12.9621 9.64224H12.9829C13.55 9.64528 14.0928 9.89585 14.4922 10.339C14.8917 10.7821 15.1153 11.3816 15.1139 12.006C15.1125 12.6304 14.8863 13.2287 14.4849 13.6697C14.0834 14.1107 13.5396 14.3584 12.9725 14.3584C12.4055 14.3584 11.8616 14.1107 11.4602 13.6697C11.0587 13.2287 10.8325 12.6304 10.8311 12.006C10.8297 11.3816 11.0533 10.7821 11.4528 10.339C11.8523 9.89585 12.3951 9.64528 12.9621 9.64224Z" fill="currentColor"/>
</svg>
