<svg width="83" height="83" viewBox="0 0 83 83" fill="none" xmlns="http://www.w3.org/2000/svg">
<path d="M9.24673 54.1858C0.0314015 38.5819 5.2103 18.4621 20.8142 9.24677C36.418 0.0314402 56.5378 5.21034 65.7532 20.8142C74.9685 36.418 69.7896 56.5379 54.1857 65.7532C38.5819 74.9685 18.4621 69.7896 9.24673 54.1858Z" fill="#FCD53F"/>
<path d="M49.2354 55.0669C48.8379 55.3016 48.4905 55.6124 48.2131 55.9814C47.9356 56.3505 47.7336 56.7705 47.6185 57.2176C47.5034 57.6647 47.4775 58.1301 47.5423 58.5872C47.6071 59.0443 47.7613 59.4842 47.996 59.8817C48.2308 60.2793 48.5416 60.6267 48.9106 60.9041C49.2796 61.1815 49.6997 61.3835 50.1468 61.4986C50.5939 61.6137 51.0593 61.6396 51.5164 61.5748C51.9735 61.5101 52.4134 61.3559 52.8109 61.1211C53.6138 60.647 54.1954 59.8733 54.4278 58.9703C54.6602 58.0674 54.5244 57.1091 54.0503 56.3062C53.5762 55.5034 52.8025 54.9218 51.8995 54.6893C50.9966 54.4569 50.0383 54.5927 49.2354 55.0669ZM50.6173 29.753C48.744 30.8593 47.387 32.6645 46.8446 34.7715C46.3023 36.8784 46.6192 39.1145 47.7255 40.9878C48.8318 42.8611 50.637 44.2182 52.7439 44.7605C54.8509 45.3028 57.0869 44.986 58.9602 43.8796C60.8335 42.7733 62.1906 40.9681 62.733 38.8612C63.2753 36.7542 62.9584 34.5182 61.8521 32.6449C60.7458 30.7716 58.9406 29.4145 56.8336 28.8721C54.7267 28.3298 52.4907 28.6467 50.6173 29.753ZM24.7003 57.308C23.91 55.9699 23.6837 54.3727 24.0711 52.8677C24.4585 51.3628 25.4278 50.0734 26.7659 49.2831C28.104 48.4929 29.7012 48.2666 31.2061 48.654C32.7111 49.0413 34.0005 50.0107 34.7907 51.3488C35.581 52.6868 35.8073 54.284 35.4199 55.789C35.0325 57.2939 34.0632 58.5833 32.7251 59.3736C31.387 60.1638 29.7898 60.3901 28.2849 60.0028C26.7799 59.6154 25.4905 58.646 24.7003 57.308ZM26.956 21.9512C25.6179 22.7415 24.6486 24.0309 24.2612 25.5358C23.8738 27.0408 24.1001 28.638 24.8904 29.976C25.6806 31.3141 26.97 32.2835 28.475 32.6708C29.9799 33.0582 31.5771 32.8319 32.9152 32.0416C34.2533 31.2514 35.2226 29.962 35.61 28.457C35.9974 26.9521 35.7711 25.3549 34.9808 24.0168C34.1906 22.6787 32.9012 21.7094 31.3962 21.322C29.8913 20.9346 28.2941 21.161 26.956 21.9512ZM34.0428 4.86376C39.5681 4.28496 45.15 5.11305 50.2693 7.27101C50.1203 8.34454 49.7601 9.37792 49.2094 10.3114C48.6588 11.2449 47.9286 12.0601 47.061 12.7097C46.1935 13.3594 45.2058 13.8307 44.1551 14.0964C43.1043 14.3621 42.0114 14.417 40.9393 14.2578C39.8672 14.0987 38.8373 13.7286 37.9091 13.1691C36.9809 12.6096 36.1727 11.8716 35.5313 10.998C34.89 10.1243 34.4281 9.13217 34.1724 8.07894C33.9167 7.02571 33.8734 5.93427 34.0428 4.86376ZM6.67582 26.2442C4.81395 31.3485 4.24496 36.8344 5.01963 42.2122C6.89192 42.0171 8.64016 41.184 9.97101 39.8527C11.3019 38.5213 12.1343 36.7728 12.3288 34.9004C12.5232 33.0281 12.0677 31.1458 11.0388 29.5695C10.0099 27.9931 8.46809 26.8198 6.67582 26.2442Z" fill="#F9C23C"/>
</svg>
