<svg width="145" height="145" viewBox="0 0 145 145" fill="none" xmlns="http://www.w3.org/2000/svg">
<circle cx="72.5" cy="72.5" r="72.5" fill="url(#paint0_radial_0_1)"/>
<path d="M19.4747 104.465C12.8095 104.922 8.04568 102.364 4.56756 98.2102C6.01565 102.009 7.86297 105.583 9.89977 109.041C15.1169 111.013 20.6657 111.838 27.0873 107.186C23.9543 105.638 21.1326 104.356 19.4747 104.465ZM106.475 8C106.779 10.2372 105.21 11.4103 101.4 10.4759C94.9376 8.89351 89.2671 15.7687 86.0123 21.5186C79.6041 32.8204 53.1664 45.5546 53.1461 35.7533C53.1394 31.1221 29.7873 41.5031 26.8031 36.8514C23.9814 32.4589 15.55 34.1505 13.8042 28.8849C5.90266 39.6905 1.12465 52.4909 0 65.8666C2.55107 70.7638 5.84648 74.6107 9.14866 76.2749C13.6147 78.5257 34.3616 86.6969 37.3931 81.4791C42.4479 72.7759 72.7765 78.935 72.0524 74.3583C70.6653 65.5937 88.4754 72.7896 94.8767 61.4945C98.1383 55.7447 105.25 51.3317 111.719 52.9141C119.271 54.7625 128.589 41.7078 127.885 25.6587C121.94 18.4405 114.671 12.4449 106.475 8ZM128 118.324C125.713 119.457 123.46 120.323 121.402 120.548C106.191 122.205 102.902 134.223 92.6978 132.163C87.44 131.099 80.2673 140.444 72.0592 141.01C66.6433 141.412 61.2533 142.113 55.9137 143.111C61.2083 144.348 66.6242 144.982 72.0592 145C94.5993 145 114.724 134.612 128 118.324Z" fill="#AB635B"/>
<defs>
<radialGradient id="paint0_radial_0_1" cx="0" cy="0" r="1" gradientUnits="userSpaceOnUse" gradientTransform="translate(47.5 27) rotate(39.9774) scale(149.42)">
<stop stop-color="#FEF5D7"/>
<stop offset="0.448364" stop-color="#C37169"/>
<stop offset="0.899" stop-color="#2D7F9A"/>
</radialGradient>
</defs>
</svg>
