<svg width="376" height="418" viewBox="0 0 376 418" fill="none" xmlns="http://www.w3.org/2000/svg">
<g clip-path="url(#clip0_1048_45)">
<path d="M91.3211 257.328C118.163 298.973 173.683 310.973 215.328 284.131C256.973 257.289 268.973 201.77 242.131 160.125C215.289 118.48 159.77 106.479 118.125 133.321C76.4797 160.163 64.4793 215.682 91.3211 257.328Z" fill="url(#paint0_radial_1048_45)"/>
<path d="M256.232 203.184C256.777 212.297 255.929 221.439 253.716 230.296C266.144 247.147 268.915 260.521 258.833 265.752C253.562 268.49 245.301 268.635 235.16 266.728C209.919 261.958 172.67 244.039 138.298 218.676C114.41 201.047 96.4597 183.185 86.6397 168.475C76.6444 153.51 75.0755 141.816 84.3462 136.998C90.4383 133.83 100.498 134.093 112.908 137.073C114.62 135.78 116.306 134.494 118.125 133.321C124.104 129.467 130.389 126.505 136.823 124.224C96.2381 107.447 60.3498 102.633 42.2848 114.276C17.6974 130.124 33.6055 171.389 77.2212 214.268C88.1315 224.93 99.7112 234.884 111.89 244.071C139.62 265.121 169.194 281.879 196.641 293.231C237.222 310.001 273.11 314.815 291.175 303.171C315.756 287.328 299.855 246.058 256.232 203.184Z" fill="#FAE392"/>
<path d="M113.448 126.854C105.148 124.91 96.6251 124.093 88.1076 124.424C79.8731 124.841 71.2159 126.259 65.4382 130.612C59.5615 134.749 58.9058 141.629 61.223 148.878C63.5944 156.072 67.5843 163.192 72.488 169.902C82.127 183.431 93.3203 195.782 105.838 206.702C118.143 217.973 131.705 227.865 145.713 237.041C173.912 255.404 204.565 269.691 236.761 279.479C240.781 280.56 244.841 281.966 248.822 282.923C252.711 283.74 256.79 284.245 260.692 284.354C268.48 284.544 276.201 282.602 278.799 276.027C281.48 269.409 279.585 260.6 276.613 252.954C273.473 245.187 269.1 237.736 263.625 231.085C270.002 236.875 275.668 243.653 279.887 251.422C283.92 259.103 287.643 268.101 284.949 278.181C283.59 283.149 279.597 287.609 275.019 289.811C270.451 292.186 265.578 292.972 260.931 293.272C256.248 293.516 251.728 293.316 247.132 292.735C242.683 292.089 238.431 291.267 234.059 290.462C199.623 283.395 166.616 269.658 136.946 250.646C107.476 231.556 80.1807 207.65 61.8044 176.708C57.2872 169.08 52.9392 160.894 50.9617 151.4C50.0085 146.685 49.6897 141.421 51.3086 136.206C52.8712 131.009 56.3983 126.627 61.1405 123.99C70.1389 119.168 79.514 119.174 88.2555 119.977C96.967 120.905 105.473 123.227 113.448 126.854Z" fill="#F1AE79"/>
</g>
<defs>
<radialGradient id="paint0_radial_1048_45" cx="0" cy="0" r="1" gradientUnits="userSpaceOnUse" gradientTransform="translate(203.101 152.564) rotate(125.129) scale(179.662 355.427)">
<stop stop-color="#FCF3D4"/>
<stop offset="0.381849" stop-color="#B9E4D8"/>
<stop offset="0.795399" stop-color="#6BA5AF"/>
</radialGradient>
<clipPath id="clip0_1048_45">
<rect width="302" height="302" fill="white" transform="translate(211.842) rotate(57.1967)"/>
</clipPath>
</defs>
</svg>
