<svg width="29" height="29" viewBox="0 0 29 29" fill="none" xmlns="http://www.w3.org/2000/svg">
<path d="M14.3008 22.2467C20.6974 22.1195 25.8108 18.3861 25.7225 13.9089C25.6497 10.2829 22.1875 7.28014 17.4768 6.33697M2.55662 14.3695C2.62628 17.8732 5.86132 20.7949 10.3292 21.839M13.9784 6.03168C9.3322 6.12405 5.36317 8.11818 3.57294 10.9191" stroke="currentColor" stroke-width="1.5" stroke-linecap="round" stroke-linejoin="round"/>
<path d="M21.0891 14.001C21.0357 11.3145 17.8811 9.19823 14.043 9.27524C10.2048 9.35225 7.13676 11.5909 7.19017 14.2773C7.24357 16.9638 10.3982 19.0801 14.2364 19.0045C16.5693 18.9567 18.6149 18.1126 19.8516 16.8546" stroke="currentColor" stroke-width="1.5" stroke-linecap="round" stroke-linejoin="round"/>
<path d="M16.4557 14.0932C16.4743 14.9889 15.4516 15.7355 14.172 15.761C12.8924 15.7864 11.8408 15.081 11.8237 14.1852C11.8052 13.2895 12.8279 12.5429 14.1075 12.5174C15.3871 12.492 16.4386 13.1974 16.4557 14.0932Z" stroke="currentColor" stroke-width="1.5" stroke-linecap="round" stroke-linejoin="round"/>
</svg>
