<svg width="342" height="431" viewBox="0 0 342 431" fill="none" xmlns="http://www.w3.org/2000/svg">
<path d="M72.5 284.5L9.5 214L4.5 226.5L68 293.5L82 292.5C87 286.5 107.667 276 113 274.5L109 271.5L93 276.5C107.5 260.333 129.998 232.166 129 231.5C126 229.5 124.5 231.5 122 231.5L72.5 284.5Z" fill="black"/>
<path d="M183.5 238.5C179.5 230.009 161 226 154 228.009C146.083 230.28 144.167 230.667 146.5 229L124.5 230.009L78.5 184.009L10.5 214.509L5 225.009L69.5 294.009L78.5 291.509C67.8333 306.509 46.9 346.309 50.5 379.509C42.5 377.342 10 371.517 14 385.009C18 398.5 37.9 418.809 67.5 422.009L78.5 402.009C83.1667 401.175 95 394.009 104.5 384.509C104.5 396.009 110 398.333 112.5 402.333C111 403.163 102 404.509 95.5 420.5C94.0774 424 110 431 132 424C149.6 418.4 158.167 408.842 165 402.509C165 402.509 161.9 394.109 157.5 388.509C159.5 386.009 161.6 376.809 156 358.009C150.4 339.209 148.333 338 148.5 339.5C164.5 345.5 197.6 349.509 206 349.509C222.833 352.009 265.6 347.209 292 314.009C307 295.145 328.5 248.509 307 189.509L319.5 171.509C313.5 163.509 303.3 141.809 310.5 119.009C319.5 90.5086 280.5 34.0086 244.5 32.0086C208.5 30.0086 196 27.5086 160.5 62.0086C156.833 65.8419 150.6 76.8085 155 90.0085C149.167 95.3419 141 109.709 155 124.509C154.833 126.342 155.1 131.509 157.5 137.509C153.833 138.842 148.885 143.176 152 152.509C154 158.5 161.5 159 165.5 157C173.667 171 195.7 195.309 222.5 186.509C219.596 188.885 206.5 208 202.5 218C196.5 229 194.5 238.162 196.5 241.509M157.5 244.009C147.354 250.29 147.333 263.175 149.5 271.009C181.5 288.509 232.5 291.509 255 286.009C277.5 280.509 281 250.509 280.5 230.009C280 209.509 274 196.509 252.5 197.009C235.3 197.409 224.333 228.675 219.5 242.509C216.26 242.509 201.997 241.868 196.5 241.509M157.5 244.009C149.5 246.208 145.333 261.916 145.5 270C132 267.5 120.167 267.842 112.5 271.009C109 268.509 106.9 265.809 112.5 259.009C119.5 250.509 125.5 245.509 135 244.009C136.667 242.342 141.4 239.509 147 241.509C152.6 243.509 156.333 244.009 157.5 244.009ZM157.5 244.009C165.417 239.108 179.655 240.407 196.5 241.509M175.5 134.5C177.333 130 184 123.5 194 130.5M108.607 402.509C117.607 402.842 144.288 396.109 159.088 384.509C162.088 388.009 130.107 409.509 108.607 402.509Z" stroke="black" stroke-width="7" stroke-linecap="round"/>
<path d="M140 241.009C139.333 238.342 144.3 230.4 153.5 228M220.5 188.009C226 191.175 242.8 196.809 260 188.009" stroke="black" stroke-width="7"/>
<path d="M191.62 164.824C199.302 163.575 199.302 156.707 199.302 156.707C199.302 156.707 199.302 155.458 200.305 156.281C201.464 158.763 201.666 165.448 196.938 166.697C192.633 167.834 189.65 165.448 191.62 164.824Z" fill="black"/>
<path d="M199.302 156.707C199.302 156.707 199.302 163.575 191.62 164.824C189.65 165.448 192.633 167.834 196.938 166.697C201.666 165.448 201.464 158.763 200.305 156.281M199.302 156.707C199.302 156.707 199.302 155.458 200.305 156.281M199.302 156.707L199.893 157.331L200.305 156.281" stroke="black" stroke-width="2"/>
<path d="M68 222.5L78.5 235.5L84 230" stroke="black" stroke-width="5" stroke-linecap="round"/>
<path d="M79.5 218.5L91 216.5L89 226" stroke="black" stroke-width="5" stroke-linecap="round"/>
<path d="M60 227.5L55 240.5H70" stroke="black" stroke-width="5" stroke-linecap="round"/>
<path d="M155 126C154.501 117.985 155.805 99.8088 160.199 95C163.528 103.015 175.579 117.341 197.149 110.528C218.72 103.716 232.435 120.046 236.596 129.062C237.927 134.071 239.092 144.891 233.1 148.097C225.611 152.104 247.081 176.649 256.569 181.658C264.158 185.666 261.229 190.174 258.067 195.684C266.721 195.183 279 209.5 279 209.5L307 188.671" stroke="black" stroke-width="7"/>
<path d="M78.5 400.5C63.7 400.1 53 385 50.5 377.5C50.1667 386.333 56.9 403.6 74.5 406L78.5 400.5Z" fill="black" stroke="black" stroke-width="2"/>
<path d="M104 385.009C114.712 374.504 136.51 349.198 138 332.009" stroke="black" stroke-width="7"/>
<path d="M173 123.5C170 124 169 120 170 118.5C172 117 178.5 116 183.5 116.5C187.978 116.948 194.5 122.5 194.5 123.5C194.5 124.5 189 122 185 121C181.8 120.2 175.667 122.333 173 123.5Z" fill="black"/>
<circle cx="230" cy="112" r="108.5" stroke="black" stroke-width="7"/>
<path d="M135 328L148.294 335.016L259.5 192.5V185C247.833 175.833 226.1 155.8 232.5 149C238.9 142.2 236.5 130.167 234.5 125L220.5 110.5H195.5L172 108.5L159.5 96L154.012 120.945C156.975 126.727 160.268 133.168 154 121C153.742 120.499 153.499 119.998 153.271 119.5C147.5 106.877 151.274 95.3291 154 91C154.667 92.5 155.6 93.6 154 86C152.4 78.4 159 65.5 162.5 60C203 24.5 200 36.5 232.5 32C265 27.5 286.5 57.5 299 76C309 90.8 310.833 107.5 310.5 114L306 137.5L318 172L310.5 185L277.5 207L259.5 192.5L148.294 335.016L153 337.5V348.5L156 364.5C150.5 380 119 400.1 105 390.5V383C114.167 373.667 132.7 353.4 133.5 347C134.3 340.6 134 330.667 135 328Z" fill="black"/>
</svg>
