<svg width="29" height="29" viewBox="0 0 29 29" fill="none" xmlns="http://www.w3.org/2000/svg">
<path d="M5.18287 6.16407C3.12951 8.45336 1.99577 11.4215 2.00001 14.4969C2.00001 15.451 2.10694 16.3815 2.30969 17.2745M5.18287 6.16407C6.71206 4.45561 8.68155 3.2006 10.876 2.53627C13.0704 1.87195 15.4052 1.8239 17.6251 2.39737C19.845 2.97085 21.8644 4.14378 23.4626 5.78787C25.0608 7.43196 26.1761 9.48391 26.6866 11.7193M5.18287 6.16407H14.4982M2.30969 17.2745H15.8868M2.30969 17.2745C2.77977 19.3404 3.76862 21.2523 5.18287 22.8297M2.30969 17.2745L5.18287 22.8297M26.6866 11.7193C27.3033 14.4213 27.0045 17.2517 25.8373 19.7654C24.67 22.279 22.7005 24.3335 20.2384 25.6056C17.7763 26.8777 14.9613 27.2953 12.2359 26.7928C9.5106 26.2904 7.02953 24.8963 5.18287 22.8297M26.6866 11.7193H18.6642M5.18287 22.8297H13.1095M14.4982 11.7193H11.7208" stroke="black" stroke-width="3" stroke-linecap="round" stroke-linejoin="round"/>
</svg>
