<svg width="28" height="28" viewBox="0 0 28 28" fill="none" xmlns="http://www.w3.org/2000/svg">
<path fill-rule="evenodd" clip-rule="evenodd" d="M4.00429 4.20001C5.30629 2.86858 6.86146 1.8111 8.57827 1.0898C10.2951 0.368505 12.1388 -0.0020302 14.001 8.36609e-06C20.2711 8.36609e-06 25.574 4.12021 27.3588 9.8H18.2007C17.8294 9.8 17.4733 9.9475 17.2108 10.2101C16.9483 10.4726 16.8008 10.8287 16.8008 11.2C16.8008 11.5713 16.9483 11.9274 17.2108 12.1899C17.4733 12.4525 17.8294 12.6 18.2007 12.6H27.93C27.9762 13.062 28 13.5282 28 14C28 21.7322 21.7326 28 14.001 28C12.1388 28.0021 10.295 27.6316 8.57823 26.9103C6.86141 26.189 5.30624 25.1315 4.00429 23.8H12.6011C12.9724 23.8 13.3284 23.6525 13.591 23.3899C13.8535 23.1274 14.001 22.7713 14.001 22.4C14.001 22.0287 13.8535 21.6726 13.591 21.41C13.3284 21.1475 12.9724 21 12.6011 21H1.87504C1.36286 20.1147 0.949735 19.1757 0.643127 18.2H15.4009C15.7722 18.2 16.1282 18.0525 16.3908 17.7899C16.6533 17.5274 16.8008 17.1713 16.8008 16.8C16.8008 16.4287 16.6533 16.0726 16.3908 15.8101C16.1282 15.5475 15.7722 15.4 15.4009 15.4H0.0719677C-0.225878 12.4798 0.405617 9.54017 1.87644 7H14.001C14.3723 7 14.7283 6.8525 14.9909 6.58995C15.2534 6.3274 15.4009 5.97131 15.4009 5.60001C15.4009 5.2287 15.2534 4.87261 14.9909 4.61006C14.7283 4.34751 14.3723 4.20001 14.001 4.20001H4.00429ZM11.2012 9.8C10.8299 9.8 10.4738 9.9475 10.2113 10.2101C9.94877 10.4726 9.80128 10.8287 9.80128 11.2C9.80128 11.5713 9.94877 11.9274 10.2113 12.1899C10.4738 12.4525 10.8299 12.6 11.2012 12.6H14.001C14.3723 12.6 14.7283 12.4525 14.9909 12.1899C15.2534 11.9274 15.4009 11.5713 15.4009 11.2C15.4009 10.8287 15.2534 10.4726 14.9909 10.2101C14.7283 9.9475 14.3723 9.8 14.001 9.8H11.2012ZM7.99261 12.1912C7.73009 12.4537 7.37408 12.6011 7.00288 12.6011C6.63168 12.6011 6.27567 12.4537 6.01315 12.1912C5.75047 11.9287 5.60143 11.5726 5.60129 11.2012C5.60123 11.0173 5.63738 10.8352 5.70769 10.6653C5.77799 10.4954 5.88108 10.341 6.01105 10.2109C6.14102 10.0808 6.29534 9.97763 6.46519 9.9072C6.63505 9.83677 6.81711 9.80048 7.00098 9.80042C7.37234 9.80029 7.72853 9.94769 7.99121 10.2102C8.12137 10.3402 8.22462 10.4946 8.29507 10.6646C8.36552 10.8345 8.40178 11.0167 8.40178 11.2007C8.40178 11.3847 8.36552 11.5669 8.29507 11.7368C8.22462 11.9068 8.12137 12.0612 7.99121 12.1912H7.99261ZM18.6123 17.7912C18.7414 17.9249 18.8959 18.0316 19.0667 18.1049C19.2375 18.1783 19.4212 18.2169 19.607 18.2185C19.7929 18.2202 19.9772 18.1847 20.1493 18.1143C20.3213 18.044 20.4776 17.94 20.6091 17.8086C20.7405 17.6771 20.8445 17.5208 20.9149 17.3487C20.9852 17.1767 21.0207 16.9923 21.019 16.8064C21.0174 16.6205 20.9788 16.4368 20.9054 16.266C20.8321 16.0952 20.7254 15.9407 20.5917 15.8116C20.3292 15.5489 19.9731 15.3998 19.6018 15.3997C19.2304 15.3996 18.8742 15.547 18.6116 15.8095C18.3489 16.072 18.2012 16.4281 18.2011 16.7995C18.201 17.1709 18.3484 17.5271 18.6109 17.7898L18.6123 17.7912Z" fill="currentColor"/>
</svg>

