<svg width="26" height="26" viewBox="0 0 26 26" fill="none" xmlns="http://www.w3.org/2000/svg">
<g clip-path="url(#clip0_502_2)">
<path d="M13 0.317383C14.1934 0.317383 15.3444 0.469727 16.4531 0.774414C17.5618 1.0791 18.5944 1.51921 19.5508 2.09473C20.5072 2.67025 21.3831 3.34733 22.1787 4.12598C22.9743 4.90462 23.6556 5.7806 24.2227 6.75391C24.7897 7.72721 25.2256 8.764 25.5303 9.86426C25.835 10.9645 25.9915 12.1156 26 13.3174C26 14.7139 25.7884 16.0596 25.3652 17.3545C24.9421 18.6494 24.3369 19.8385 23.5498 20.9219C22.7627 22.0052 21.8275 22.9531 20.7441 23.7656C19.6608 24.5781 18.4505 25.2087 17.1133 25.6572C17.0879 25.6657 17.0498 25.6699 16.999 25.6699C16.9482 25.6699 16.9102 25.6742 16.8848 25.6826C16.6816 25.6826 16.5208 25.6234 16.4023 25.5049C16.2839 25.3864 16.2246 25.2298 16.2246 25.0352V23.2578C16.2246 22.6738 16.2288 22.0771 16.2373 21.4678C16.2373 21.0361 16.1738 20.6003 16.0469 20.1602C15.9199 19.7201 15.6914 19.3519 15.3613 19.0557C16.3431 18.9456 17.2021 18.7467 17.9385 18.459C18.6748 18.1712 19.2926 17.765 19.792 17.2402C20.2913 16.7155 20.6637 16.0807 20.9092 15.3359C21.1546 14.5911 21.2816 13.694 21.29 12.6445C21.29 11.9844 21.18 11.3623 20.96 10.7783C20.7399 10.1943 20.4056 9.65267 19.957 9.15332C20.0501 8.91634 20.1178 8.6709 20.1602 8.41699C20.2025 8.16309 20.2236 7.90918 20.2236 7.65527C20.2236 7.3252 20.1898 6.99935 20.1221 6.67773C20.0544 6.35612 19.957 6.03451 19.8301 5.71289C19.7878 5.69596 19.7412 5.6875 19.6904 5.6875C19.6396 5.6875 19.5931 5.6875 19.5508 5.6875C19.2799 5.6875 18.9964 5.72982 18.7002 5.81445C18.404 5.89909 18.112 6.00911 17.8242 6.14453C17.5365 6.27995 17.2529 6.42806 16.9736 6.58887C16.6943 6.74967 16.4531 6.90202 16.25 7.0459C15.1921 6.74967 14.1087 6.60156 13 6.60156C11.8913 6.60156 10.8079 6.74967 9.75 7.0459C9.53841 6.90202 9.2972 6.74967 9.02637 6.58887C8.75553 6.42806 8.47624 6.28418 8.18848 6.15723C7.90072 6.03027 7.60449 5.92025 7.2998 5.82715C6.99512 5.73405 6.71159 5.6875 6.44922 5.6875H6.30957C6.25879 5.6875 6.21224 5.69596 6.16992 5.71289C6.05143 6.02604 5.95833 6.34342 5.89062 6.66504C5.82292 6.98665 5.78483 7.31673 5.77637 7.65527C5.77637 7.90918 5.79753 8.16309 5.83984 8.41699C5.88216 8.6709 5.94987 8.91634 6.04297 9.15332C5.5944 9.64421 5.26009 10.1816 5.04004 10.7656C4.81999 11.3496 4.70996 11.9759 4.70996 12.6445C4.70996 13.6771 4.83268 14.57 5.07812 15.3232C5.32357 16.0765 5.69596 16.7113 6.19531 17.2275C6.69466 17.7438 7.3125 18.1543 8.04883 18.459C8.78516 18.7637 9.64421 18.9668 10.626 19.0684C10.3805 19.2884 10.1943 19.5508 10.0674 19.8555C9.94043 20.1602 9.85156 20.4775 9.80078 20.8076C9.57227 20.9176 9.33105 21.0023 9.07715 21.0615C8.82324 21.1208 8.56934 21.1504 8.31543 21.1504C7.77376 21.1504 7.3252 21.0234 6.96973 20.7695C6.61426 20.5156 6.29688 20.1686 6.01758 19.7285C5.91602 19.5677 5.79329 19.4069 5.64941 19.2461C5.50553 19.0853 5.34896 18.9414 5.17969 18.8145C5.01042 18.6875 4.82845 18.5859 4.63379 18.5098C4.43913 18.4336 4.236 18.3913 4.02441 18.3828H3.87207C3.80436 18.3828 3.74089 18.3955 3.68164 18.4209C3.6224 18.4463 3.56315 18.4717 3.50391 18.4971C3.44466 18.5225 3.41927 18.5648 3.42773 18.624C3.42773 18.7256 3.48698 18.8229 3.60547 18.916C3.72396 19.0091 3.82129 19.0853 3.89746 19.1445L3.93555 19.1699C4.12174 19.3138 4.28255 19.4492 4.41797 19.5762C4.55339 19.7031 4.68034 19.8428 4.79883 19.9951C4.91732 20.1475 5.01465 20.3083 5.09082 20.4775C5.16699 20.6468 5.26432 20.8457 5.38281 21.0742C5.67057 21.7344 6.07259 22.2126 6.58887 22.5088C7.10514 22.805 7.72721 22.9574 8.45508 22.9658C8.67513 22.9658 8.89518 22.9531 9.11523 22.9277C9.33529 22.9023 9.55534 22.8643 9.77539 22.8135V25.0225C9.77539 25.2256 9.71615 25.3864 9.59766 25.5049C9.47917 25.6234 9.31413 25.6826 9.10254 25.6826H9.00098C8.95866 25.6826 8.92057 25.6742 8.88672 25.6572C7.55794 25.2256 6.34766 24.6035 5.25586 23.791C4.16406 22.9785 3.22884 22.0264 2.4502 20.9346C1.67155 19.8428 1.07064 18.6494 0.647461 17.3545C0.224284 16.0596 0.00846354 14.7139 0 13.3174C0 12.124 0.152344 10.973 0.457031 9.86426C0.761719 8.75553 1.20182 7.72298 1.77734 6.7666C2.35286 5.81022 3.02995 4.93424 3.80859 4.13867C4.58724 3.3431 5.46322 2.66178 6.43652 2.09473C7.40983 1.52767 8.44661 1.0918 9.54688 0.787109C10.6471 0.482422 11.7982 0.325846 13 0.317383Z" fill="currentColor"/>
</g>
<defs>
<clipPath id="clip0_502_2">
<rect width="26" height="26" fill="white"/>
</clipPath>
</defs>
</svg>
