<svg width="26" height="26" viewBox="0 0 26 26" fill="none" xmlns="http://www.w3.org/2000/svg">
<path fill-rule="evenodd" clip-rule="evenodd" d="M1.08331 3.0745C1.08331 2.54641 1.2931 2.03995 1.66651 1.66653C2.03993 1.29311 2.54639 1.08333 3.07448 1.08333H22.9233C23.185 1.0829 23.4442 1.1341 23.6861 1.23399C23.928 1.33387 24.1478 1.48049 24.333 1.66545C24.5182 1.8504 24.665 2.07006 24.7652 2.31184C24.8653 2.55363 24.9168 2.81279 24.9166 3.0745V22.9233C24.9169 23.1851 24.8656 23.4443 24.7656 23.6862C24.6656 23.9281 24.5189 24.1479 24.3338 24.3331C24.1488 24.5182 23.9291 24.6651 23.6872 24.7652C23.4454 24.8653 23.1862 24.9168 22.9244 24.9167H3.07448C2.81291 24.9167 2.55389 24.8651 2.31224 24.765C2.07059 24.6649 1.85104 24.5181 1.66613 24.3331C1.48122 24.1481 1.33457 23.9284 1.23457 23.6867C1.13457 23.445 1.08317 23.186 1.08331 22.9244V3.0745ZM10.517 10.1703H13.7442V11.791C14.2101 10.8593 15.4017 10.0208 17.1925 10.0208C20.6256 10.0208 21.4391 11.8766 21.4391 15.2815V21.5887H17.9649V16.0572C17.9649 14.118 17.4991 13.0238 16.3161 13.0238C14.6748 13.0238 13.9923 14.2036 13.9923 16.0572V21.5887H10.517V10.1703ZM4.55865 21.4402H8.03398V10.0208H4.55865V21.4392V21.4402ZM8.53123 6.29633C8.53778 6.59389 8.48483 6.88977 8.37549 7.16659C8.26615 7.44341 8.10261 7.6956 7.89448 7.90837C7.68635 8.12113 7.43782 8.29018 7.16347 8.40559C6.88913 8.521 6.59449 8.58045 6.29686 8.58045C5.99922 8.58045 5.70458 8.521 5.43024 8.40559C5.15589 8.29018 4.90736 8.12113 4.69923 7.90837C4.4911 7.6956 4.32756 7.44341 4.21822 7.16659C4.10888 6.88977 4.05593 6.59389 4.06248 6.29633C4.07534 5.71226 4.3164 5.15644 4.73402 4.74791C5.15165 4.33938 5.71264 4.11062 6.29686 4.11062C6.88107 4.11062 7.44206 4.33938 7.85969 4.74791C8.27731 5.15644 8.51837 5.71226 8.53123 6.29633V6.29633Z" fill="black"/>
</svg>
