<svg width="577" height="576" viewBox="0 0 577 576" fill="none" xmlns="http://www.w3.org/2000/svg">
<path d="M563.627 576C463.361 463.803 151.289 430.592 0 576H563.627Z" fill="url(#paint0_linear_1096_6)"/>
<path d="M344.826 505.129H378.214C392.966 505.129 405.172 493.654 406.087 478.93C410.617 406.066 406.674 331.005 381.056 262.724C368.917 230.369 351.969 199.722 327.683 174.862C309.839 156.596 306.052 149.072 288.072 162.141C258.891 183.353 278.743 186.281 288.717 205.606C303.793 234.815 316.634 254.282 323.55 288.08C335.794 347.919 329.745 411.486 317.452 471.733C313.928 488.998 327.207 505.129 344.826 505.129Z" fill="#F1AE79"/>
<path d="M542.584 109.253L542.093 108.477C541.765 107.969 541.3 107.194 540.645 106.233L538.261 102.665C537.836 101.969 537.158 101.191 536.519 100.385L534.363 97.831L531.912 94.963L529.148 92.069C527.23 90.026 525.061 87.895 522.594 85.809C521.333 84.7 520.059 83.6069 518.771 82.53C517.433 81.432 515.99 80.414 514.53 79.304C513.06 78.217 511.553 77.065 509.944 76.019L504.956 72.845C504.099 72.309 503.24 71.741 502.345 71.233L499.603 69.756L493.912 66.725C491.942 65.79 489.907 64.902 487.837 63.98C486.799 63.531 485.761 63.036 484.692 62.616L481.447 61.384C472.729 57.996 463.127 55.422 452.963 53.712L449.125 53.093C447.838 52.886 446.545 52.659 445.237 52.575L437.322 51.875C431.993 51.63 426.555 51.371 421.076 51.744C418.333 51.862 415.571 51.95 412.814 52.291L408.662 52.725L406.584 52.976L406.064 53.039L405.804 53.071L405.674 53.087C406.282 52.959 404.698 53.279 404.822 53.254L403.933 53.41L396.804 54.657L395.902 54.818L394.799 55.08L392.592 55.61L388.173 56.699C385.135 57.442 382.546 58.362 379.839 59.245C378.489 59.68 377.158 60.164 375.821 60.63C374.489 61.11 373.195 61.698 371.883 62.23C370.573 62.768 369.273 63.33 367.983 63.907L366.046 64.764C365.404 65.058 364.782 65.399 364.15 65.715C361.624 66.984 359.158 68.352 356.694 69.687C347.178 75.2999 338.466 82.1757 330.796 90.127L328.073 93.079C327.179 94.065 326.269 95.013 325.456 96.071L320.563 102.189C318.963 104.498 317.396 106.763 315.913 109.04C315.158 107.053 314.232 105.018 313.255 102.863C312.733 101.665 312.111 100.489 311.458 99.29C310.82 98.081 310.131 96.863 309.429 95.613C307.997 93.135 306.318 90.67 304.582 88.102C302.708 85.653 300.829 83.04 298.626 80.594C297.526 79.37 296.422 78.115 295.268 76.878C294.074 75.6519 292.857 74.45 291.615 73.273C289.155 70.831 286.384 68.626 283.608 66.342C277.898 61.971 271.614 57.965 264.89 54.602C258.131 51.306 251.051 48.483 243.809 46.314C236.536 44.225 229.149 42.725 221.845 41.901C214.734 41.1532 207.574 40.9957 200.438 41.43C198.714 41.571 197.011 41.754 195.334 41.92C194.495 42.014 193.665 42.071 192.837 42.199L190.375 42.588C188.747 42.855 187.146 43.089 185.574 43.415C184.002 43.764 182.459 44.093 180.948 44.46C177.922 45.131 175.036 46.114 172.275 46.928C169.532 47.926 166.911 48.848 164.458 49.904C163.232 50.438 162.047 51.001 160.895 51.53C159.742 52.06 158.625 52.577 157.559 53.157C156.487 53.706 155.46 54.289 154.467 54.839C153.475 55.395 152.512 55.91 151.609 56.494C149.789 57.613 148.137 58.743 146.617 59.738C145.119 60.803 143.793 61.867 142.594 62.776C141.519 63.5874 140.483 64.4501 139.491 65.361C138.611 66.141 137.886 66.839 137.295 67.384L135.524 69.116C134.581 70.0385 133.927 71.2157 133.642 72.5037C133.357 73.7918 133.453 75.135 133.919 76.3692C134.385 77.6033 135.201 78.6749 136.266 79.4531C137.331 80.2313 138.6 80.6823 139.918 80.751L140.506 80.782L142.792 80.901L145.47 80.987L147.137 81.025C147.737 81.068 148.371 81.112 149.03 81.139C150.349 81.197 151.805 81.302 153.345 81.351C154.906 81.469 156.587 81.65 158.327 81.756C161.841 82.091 165.705 82.52 169.792 83.173C170.805 83.279 171.852 83.54 172.896 83.712L176.063 84.275L179.293 84.98C180.376 85.204 181.465 85.419 182.564 85.732C183.662 86.026 184.764 86.281 185.87 86.555L189.199 87.512C191.426 88.096 193.651 88.931 195.884 89.611C200.332 91.217 204.767 92.942 209.093 94.924C210.197 95.4503 211.296 95.986 212.391 96.531C211.705 96.563 211.017 96.59 210.336 96.645C208.288 96.789 206.206 96.829 204.183 97.069L198.093 97.748C190.047 98.872 182.122 100.334 174.598 102.455C173.653 102.708 172.705 102.943 171.772 103.209L168.996 104.06C167.156 104.639 165.318 105.182 163.515 105.783C159.942 107.079 156.389 108.257 153.01 109.698C151.324 110.373 149.646 111.069 147.978 111.786C146.341 112.533 144.716 113.247 143.128 114.006C139.928 115.451 136.896 117.084 133.938 118.616C131.001 120.204 128.195 121.834 125.504 123.43C124.167 124.25 122.865 125.075 121.594 125.894C120.324 126.716 119.068 127.483 117.877 128.328C115.483 129.985 113.207 131.572 111.09 133.166C109.095 134.685 107.123 136.234 105.176 137.813C103.489 139.239 101.818 140.685 100.164 142.15C98.6408 143.533 97.2578 144.887 96.0188 146.057C93.5228 148.454 91.8328 150.425 90.6118 151.794C89.4178 153.173 88.7968 153.94 88.7968 153.94C88.3819 154.453 88.1254 155.075 88.0585 155.732C87.9916 156.388 88.1173 157.049 88.4202 157.635C88.7231 158.221 89.1901 158.706 89.7642 159.031C90.3382 159.356 90.9945 159.507 91.6528 159.465C91.6528 159.465 92.6378 159.403 94.4528 159.226L97.7698 158.849C99.0688 158.65 100.536 158.528 102.15 158.348C105.333 157.935 109.259 157.539 113.656 156.929L128.274 155.059C130.921 154.722 133.678 154.42 136.482 154.021L145.173 152.984L149.668 152.47C151.19 152.271 152.715 152.1 154.244 151.956C155.789 151.81 157.33 151.607 158.89 151.43C160.457 151.293 162.03 151.147 163.606 150.972C165.182 150.792 166.775 150.652 168.369 150.518L173.17 150.079L177.997 149.704C179.612 149.58 181.224 149.434 182.839 149.354C184.453 149.248 186.074 149.175 187.686 149.038L192.519 148.827L194.93 148.704L197.328 148.647C198.923 148.623 200.528 148.541 202.107 148.523C208.449 148.443 214.628 148.579 220.574 148.895C223.494 149.174 226.44 149.271 229.201 149.686C232.04 149.919 234.677 150.37 237.367 150.586C238.663 150.777 239.94 150.966 241.231 151.102C241.865 151.19 242.538 151.211 243.143 151.324C243.755 151.431 244.371 151.519 244.987 151.606C245.601 151.698 246.22 151.767 246.837 151.842C247.145 151.882 247.455 151.912 247.766 151.939L248.651 152.087C249.822 152.3 251.002 152.477 252.196 152.613C252.809 152.662 253.341 152.821 253.912 152.911L255.612 153.202C256.177 153.301 256.746 153.392 257.325 153.461C257.913 153.522 258.415 153.685 258.965 153.79C260.045 154.022 261.155 154.201 262.251 154.405C263.345 154.597 264.339 154.91 265.411 155.121C269.667 156.004 273.6 157.21 277.404 158.404C278.414 158.644 279.226 159.066 280.142 159.372C281.029 159.705 281.909 160.031 282.788 160.338L284.088 160.799L285.277 161.323L287.599 162.3C290.666 163.513 293.04 164.77 294.839 165.56C295.731 165.962 296.438 166.277 296.943 166.477L297.228 166.597C297.267 171.734 297.816 176.263 298.624 180.033C298.875 181.21 299.108 182.314 299.366 183.346C299.645 184.379 299.937 185.338 300.213 186.225C300.667 187.73 301.199 189.211 301.806 190.661C302.259 191.848 302.728 192.735 303.001 193.334L303.456 194.234C303.837 194.988 304.395 195.639 305.082 196.132C305.769 196.624 306.565 196.942 307.401 197.06C308.238 197.178 309.091 197.091 309.887 196.808C310.684 196.525 311.399 196.053 311.974 195.433L314.034 193.209L314.25 192.976C314.387 192.822 314.622 192.591 314.868 192.295C315.358 191.703 316.182 190.827 317.094 189.741L324.336 181.135L333.533 170.097C333.922 169.611 334.335 169.127 334.757 168.643C334.96 168.406 335.148 168.138 335.343 167.92L335.917 167.334L336.186 167.038C336.282 166.92 336.348 166.889 336.476 166.679L337.169 165.628L337.504 165.093L337.672 164.824C337.515 165.402 337.651 164.958 337.627 165.075L337.667 165.029L337.747 164.938C337.958 164.694 338.181 164.454 338.383 164.207C339.198 163.22 340.003 162.223 340.797 161.219L341.399 160.466L342.1 159.738L343.5 158.278C345.242 156.291 347.49 154.459 349.572 152.601C350.703 151.705 351.925 150.85 353.077 149.976C353.68 149.551 354.194 149.087 354.858 148.694C355.5 148.29 356.153 147.898 356.772 147.485C361.729 144.183 367.346 141.434 373.002 138.806C378.666 136.183 384.341 133.616 390.081 130.887L407.528 122.924C408.123 122.64 408.715 122.348 409.302 122.047L410.192 121.583L410.638 121.345L411.485 121.071C413.798 120.355 416.089 119.548 418.385 118.787L419.245 118.498C419.571 118.426 416.821 118.987 418.02 118.739L418.097 118.716L418.251 118.669L418.559 118.575L419.794 118.195L422.261 117.362C423.09 117.102 423.9 116.74 424.749 116.552C425.592 116.337 426.434 116.102 427.277 115.848C428.963 115.35 430.653 114.805 432.378 114.463C434.095 114.058 435.816 113.559 437.551 113.196C439.288 112.868 441.032 112.49 442.782 112.124C444.532 111.762 446.286 111.538 448.046 111.226L450.69 110.774L453.326 110.455L455.968 110.122C456.852 109.991 457.74 109.851 458.61 109.806C460.358 109.675 462.11 109.523 463.871 109.332C464.757 109.216 465.613 109.218 466.479 109.178C467.342 109.15 468.217 109.072 469.085 109.021C472.609 108.661 475.917 108.922 479.347 108.74L484.318 108.854L486.783 108.916C487.582 108.976 488.383 109.026 489.184 109.066L493.946 109.337C495.515 109.436 496.973 109.699 498.503 109.799C500.003 109.951 501.523 110.048 502.949 110.251C504.358 110.48 505.748 110.701 507.143 110.871C508.513 111.076 509.924 111.195 511.179 111.474C512.444 111.742 513.703 111.969 514.936 112.182L518.497 112.835C519.537 113.083 520.593 113.267 521.59 113.479L524.473 114.088C525.407 114.305 526.278 114.378 527.157 114.708C528.876 115.266 530.374 115.7 531.593 116.049C532.798 116.413 533.769 116.64 534.405 116.813L535.377 117.067L536.649 117.399C537.365 117.584 538.111 117.62 538.842 117.505C539.573 117.39 540.272 117.126 540.897 116.73C541.499 116.35 542.021 115.856 542.431 115.274C542.842 114.693 543.134 114.036 543.291 113.341C543.448 112.647 543.466 111.928 543.345 111.227C543.223 110.525 542.965 109.855 542.584 109.253Z" fill="url(#paint1_linear_1096_6)"/>
<path d="M499.753 205.002C499.655 200.771 499.13 195.66 497.884 189.989C496.648 184.316 494.716 178.075 491.953 171.56C488.944 164.557 485.288 157.851 481.032 151.528C478.76 148.149 476.234 144.791 473.488 141.445C470.691 138.145 467.71 134.821 464.393 131.638C457.777 125.261 450.078 119.151 440.856 113.996C439.691 113.348 438.516 112.718 437.332 112.105L433.639 110.334C432.404 109.746 431.083 109.215 429.798 108.662L428.823 108.261L428.578 108.162C428.92 108.271 427.971 107.956 428.041 107.977L427.956 107.942L427.614 107.802L426.93 107.521C426.685 107.423 426.55 107.355 426.063 107.189L423.603 106.345L421.515 105.67C420.142 105.242 418.757 104.855 417.361 104.509C414.596 103.813 411.857 103.182 409.118 102.763C398.184 100.937 387.368 100.943 376.798 102.528C371.634 103.3 366.539 104.475 361.558 106.042C363.977 102.875 366.465 99.7627 369.021 96.7059C372.939 91.9919 377.107 87.2949 381.382 82.6589C385.664 78.0329 390.042 73.4469 394.469 69.0579C398.88 64.6469 403.293 60.3509 407.638 56.2919C411.808 52.4021 416.031 48.5695 420.306 44.7949C424.092 41.451 427.923 38.1587 431.798 34.9189C435.352 31.9529 438.573 29.2919 441.311 27.1129C441.999 26.5879 442.646 26.0389 443.262 25.5299L444.963 24.1549C445.498 23.7379 445.991 23.3059 446.451 22.9249C446.91 22.5399 447.392 22.2049 447.789 21.8979C448.627 21.2546 449.452 20.5938 450.262 19.9159C450.928 19.3484 451.438 18.6199 451.744 17.7996C452.049 16.9792 452.139 16.0945 452.005 15.2295C451.872 14.3645 451.519 13.5481 450.981 12.858C450.443 12.1679 449.737 11.627 448.93 11.2869C448.93 11.2869 447.896 10.8509 445.975 10.1439C444.138 9.4399 440.936 8.5879 437.196 7.7749C435.093 7.33676 432.977 6.95828 430.852 6.6399C428.543 6.3329 426.017 6.0359 423.329 5.8709C417.942 5.5079 411.836 5.5069 405.218 6.0809C398.601 6.6499 391.486 7.8159 384.097 9.6649C376.711 11.5169 369.074 14.0859 361.4 17.3719C357.596 19.0649 353.728 20.8519 349.944 22.9129C346.11 24.9009 342.364 27.1629 338.629 29.5429C334.901 31.9349 331.256 34.5459 327.664 37.2909C324.096 40.0719 320.594 42.9959 317.219 46.1169C310.48 52.3599 304.16 59.2469 298.575 66.7619C295.754 70.4899 293.141 74.3949 290.814 78.4719C288.468 82.5268 286.404 86.7384 284.636 91.0769C281.084 99.7049 278.79 108.809 277.905 117.753C277.43 122.209 277.407 126.675 277.608 130.945C277.673 131.954 277.756 132.951 277.85 133.94C276.268 133.14 274.679 132.357 273.081 131.589L271.432 130.805L269.746 130.12L266.281 128.741C261.573 126.76 256.563 125.348 251.225 123.753C248.57 123.06 245.851 122.482 243.044 121.859C241.647 121.576 240.208 121.206 238.791 121.004C237.369 120.787 235.927 120.552 234.468 120.365C228.595 119.467 222.602 119.167 216.329 118.913C213.258 118.977 210.123 119.061 206.937 119.196C205.335 119.258 203.786 119.461 202.205 119.634C200.629 119.819 199.031 119.985 197.437 120.212C184.735 122.06 171.954 125.998 160.135 132.074C158.675 132.857 157.229 133.667 155.798 134.504C154.353 135.329 152.921 136.177 151.502 137.047C150.794 137.485 150.067 137.9 149.376 138.361L147.334 139.791C145.97 140.742 144.616 141.711 143.279 142.706C141.946 143.703 140.574 144.659 139.303 145.732C138.037 146.81 136.754 147.867 135.523 148.989L131.816 152.326L130.894 153.163C130.59 153.438 130.231 153.806 129.903 154.123L127.9 156.107L124.014 160.179L122.1 162.227L121.15 163.253L120.569 163.983C119.052 165.874 117.615 167.841 116.143 169.767L115.594 170.492C115.812 170.267 113.469 172.749 114.417 171.758L114.328 171.881L114.149 172.128L113.792 172.622L112.372 174.597L109.616 178.584C107.758 181.216 106.085 183.935 104.501 186.692C101.18 192.1 98.4991 197.776 95.9191 203.328C94.7341 206.164 93.6201 208.998 92.5161 211.788C91.9351 213.167 91.4891 214.606 91.0331 216.028L89.6851 220.263C86.2671 231.54 84.1771 242.649 83.5331 253.248L83.2621 257.163C83.1791 258.455 83.2181 259.772 83.2001 261.053C83.1971 263.625 83.1841 266.131 83.2561 268.589C83.4141 271.074 83.5761 273.496 83.8081 275.86L84.1421 279.352C84.2731 280.505 84.4881 281.658 84.6761 282.786L85.8371 289.347C86.2421 291.465 86.7661 293.54 87.3141 295.532C87.8721 297.528 88.3551 299.44 88.9531 301.293C89.5681 303.15 90.1791 304.932 90.8471 306.639C92.0931 310.045 93.4511 313.172 94.8971 315.984L96.9111 319.985C97.6171 321.318 98.3821 322.555 99.0691 323.712L101.043 326.935C101.351 327.432 101.68 327.904 101.98 328.36C102.134 328.582 102.279 328.821 102.433 329.016L102.893 329.567C103.913 330.804 104.957 332.021 106.025 333.217C106.876 334.208 107.611 334.952 108.074 335.459L108.79 336.226L110.002 337.524C110.846 338.426 111.931 339.068 113.127 339.375C114.324 339.682 115.583 339.641 116.757 339.257C117.931 338.874 118.971 338.163 119.756 337.209C120.54 336.254 121.036 335.096 121.185 333.87L121.297 332.946C121.364 332.338 121.5 331.428 121.595 330.258L121.994 325.937C122.033 325.047 122.27 324.286 122.411 323.395L122.884 320.656C123.045 319.701 123.236 318.704 123.385 317.677L124.099 314.282C124.354 313.108 124.608 311.897 124.84 310.651C125.052 309.407 125.476 308.112 125.798 306.794C126.157 305.474 126.486 304.123 126.817 302.742C127.176 301.361 127.67 299.949 128.103 298.514C128.586 297.08 128.928 295.613 129.453 294.13L131.076 289.618L131.894 287.315L132.838 284.994L134.755 280.275C135.524 278.709 136.222 277.11 136.95 275.502C137.322 274.7 137.651 273.884 138.059 273.084L139.32 270.684C142.485 264.197 146.446 257.737 150.734 251.39C151.854 249.826 152.911 248.221 154.073 246.673L157.579 242.03C158.784 240.504 160.105 239.054 161.352 237.555C162.545 236.014 163.898 234.599 165.219 233.159C166.538 231.718 167.821 230.244 169.273 228.929L171.375 226.89L172.395 225.845L172.65 225.583L172.777 225.452L172.841 225.387C173.405 224.793 172.142 226.125 172.305 225.958L172.97 225.346L178.298 220.444L178.958 219.841L179.472 219.462L180.493 218.7L182.506 217.162C183.681 216.11 185.357 214.963 186.887 213.837C187.667 213.281 188.408 212.678 189.163 212.092C189.92 211.511 190.736 211.021 191.515 210.477C193.124 209.472 194.554 208.187 196.183 207.247C197.795 206.278 199.321 205.176 200.883 204.138C201.762 203.589 202.643 203.06 203.523 202.523C203.167 202.925 202.8 203.317 202.45 203.724C195.487 211.832 189.729 220.988 185.461 231.22C184.359 233.762 183.437 236.417 182.556 239.129C182.107 240.495 181.698 241.874 181.33 243.264L180.791 245.392L180.198 247.924C180.079 248.425 180.065 248.575 180.018 248.835L179.892 249.563L179.829 249.927L179.813 250.018C179.832 249.948 179.595 250.919 179.684 250.571L179.638 250.831L179.459 251.87C179.244 253.253 178.991 254.653 178.832 256.012L178.368 260.082C178.258 261.411 178.167 262.741 178.095 264.072C177.556 274.623 178.636 284.393 180.519 293.387C181.45 297.889 182.68 302.181 183.987 306.305C185.361 310.411 186.861 314.335 188.514 318.056C191.606 325.022 195.341 331.685 199.67 337.958C203.717 343.763 207.975 348.717 212.122 352.781C216.262 356.852 220.311 360.014 223.842 362.348C225.559 363.547 227.268 364.467 228.686 365.275C230.156 366.114 231.588 366.79 232.615 367.29C234.539 367.966 235.606 368.285 235.606 368.285C237.082 368.726 238.65 368.754 240.141 368.367C241.632 367.979 242.988 367.191 244.062 366.088C245.137 364.984 245.889 363.607 246.236 362.107C246.584 360.607 246.514 359.039 246.034 357.576L246.032 357.57C246.032 357.57 245.685 356.511 244.958 354.605C244.73 353.746 244.574 352.78 244.269 351.607C243.948 350.372 243.638 348.957 243.278 347.394C241.916 341.114 240.518 332.248 239.764 321.874C239.41 316.677 239.175 311.127 239.194 305.398C239.198 303.967 239.2 302.529 239.259 301.077C239.256 299.635 239.345 298.179 239.398 296.724C239.539 293.819 239.743 290.899 240.023 288.025C240.082 287.303 240.197 286.593 240.275 285.878C240.339 285.162 240.419 284.453 240.526 283.752C240.688 282.335 240.961 280.954 241.15 279.578C241.399 278.225 241.625 276.862 241.937 275.572C242.177 274.251 242.513 273.006 242.828 271.773C243.013 271.174 243.175 270.573 243.322 269.972L243.857 268.266C244.026 267.695 244.253 267.194 244.436 266.655L244.57 266.256L244.602 266.156C244.704 265.748 244.479 266.659 244.515 266.53L244.545 266.443L244.664 266.093L244.903 265.393C244.979 265.177 245.079 264.849 245.101 264.878C245.178 264.776 245.249 264.674 245.314 264.571L245.653 263.878C245.903 263.409 246.092 262.918 246.35 262.421C246.816 261.426 247.387 260.422 247.918 259.369C250.241 255.055 252.828 250.889 255.664 246.895C258.336 243.134 261.242 239.545 264.363 236.148C267.276 233.004 270.098 230.312 273.015 227.968C275.932 225.641 279.023 223.606 282.52 222C285.998 220.401 289.866 219.229 293.733 218.51C297.598 217.752 301.416 217.467 304.751 217.278C306.436 217.155 307.937 217.2 309.332 217.129C310.699 217.122 311.895 217.124 312.896 217.103C314.863 217.133 316.009 217.084 316.009 217.084L316.787 217.053C317.887 217.002 318.968 216.744 319.972 216.292C323.127 214.877 325.026 211.826 325.139 208.589C325.982 207.997 326.713 207.26 327.299 206.414L327.723 205.798C327.723 205.798 328.374 204.854 329.395 203.172C329.945 202.336 330.58 201.321 331.312 200.168C332.113 199.024 332.873 197.729 333.874 196.368C335.807 193.644 338.079 190.562 340.777 187.692C343.442 184.799 346.492 182.147 349.695 180.052C352.914 177.944 356.282 176.409 359.804 175.176C363.34 173.952 367.121 172.994 371.333 172.199C375.87 171.362 380.455 170.81 385.061 170.547C389.922 170.269 395.029 170.295 399.744 170.621C400.918 170.731 402.071 170.782 403.162 170.916C403.72 170.962 404.235 171.063 404.766 171.101L405.533 171.182C405.655 171.182 405.779 171.176 405.906 171.165C405.892 171.131 406.224 171.221 406.447 171.271L407.166 171.441L407.525 171.526L407.615 171.547C407.744 171.586 406.852 171.292 407.252 171.422L407.354 171.448L407.763 171.547C408.316 171.679 408.862 171.754 409.435 171.914L411.164 172.368C411.751 172.564 412.345 172.746 412.952 172.908C414.164 173.297 415.397 173.675 416.643 174.174C417.901 174.596 419.176 175.129 420.454 175.638C421.72 176.21 423.035 176.713 424.321 177.33C424.971 177.613 425.615 177.922 426.255 178.249C426.903 178.563 427.565 178.844 428.208 179.178C430.807 180.481 433.374 181.847 435.907 183.275C437.167 184.004 438.448 184.704 439.668 185.473C440.929 186.195 442.148 186.958 443.362 187.716C448.224 190.746 452.799 193.896 457.012 196.96C465.397 203.116 472.162 209.014 476.755 213.508C477.887 214.644 478.921 215.659 479.796 216.588C480.627 217.47 481.362 218.116 481.968 218.766C483.196 220.396 483.908 221.253 483.908 221.253L483.91 221.256C485.008 222.582 486.487 223.538 488.147 223.995C490.303 224.592 492.607 224.309 494.554 223.207C496.5 222.106 497.929 220.276 498.527 218.121C498.527 218.121 498.824 217.048 499.275 215.058C499.398 213.922 499.587 212.35 499.658 210.659C499.725 209.03 499.855 207.094 499.753 205.002Z" fill="url(#paint2_linear_1096_6)"/>
<path d="M383.175 268.546L322.86 284.851C319.333 268.946 314.447 256.21 308.623 243.921L363.721 224.473C370.398 236.765 376.131 249.6 381.056 262.726C381.779 264.66 382.486 266.6 383.175 268.546ZM330.113 368.513L403.989 360.928C402.198 345.426 399.703 330.043 396.365 314.867L328.962 326.414C330.116 340.358 330.457 354.419 330.113 368.513ZM321.643 449.572H407.412C407.772 436.533 407.814 423.463 407.451 410.411H327.234C325.796 423.531 323.896 436.607 321.643 449.572Z" fill="#E1746A"/>
<path d="M380 505C389 504.5 398.667 497 401 492.5C401 492.5 433 498 478.5 518C524 538 549 561.5 549 561.5C425 508.5 361 508.5 346 505C356 504.5 371 505.5 380 505Z" fill="#8D83AE" fill-opacity="0.47"/>
<defs>
<linearGradient id="paint0_linear_1096_6" x1="1.17893e-07" y1="527.5" x2="550.245" y2="591.467" gradientUnits="userSpaceOnUse">
<stop offset="0.204734" stop-color="#FCF3D4"/>
<stop offset="1" stop-color="#F1AE79"/>
</linearGradient>
<linearGradient id="paint1_linear_1096_6" x1="328" y1="13" x2="208" y2="163.5" gradientUnits="userSpaceOnUse">
<stop stop-color="#448270"/>
<stop offset="1" stop-color="#74BC95"/>
</linearGradient>
<linearGradient id="paint2_linear_1096_6" x1="195" y1="53" x2="445.5" y2="369" gradientUnits="userSpaceOnUse">
<stop stop-color="#80CA74"/>
<stop offset="1" stop-color="#255C6D"/>
</linearGradient>
</defs>
</svg>
