<svg width="327" height="414" viewBox="0 0 327 414" fill="none" xmlns="http://www.w3.org/2000/svg">
<path fill-rule="evenodd" clip-rule="evenodd" d="M219 209C274.781 209 320 163.781 320 108C320 52.2192 274.781 7 219 7C163.219 7 118 52.2192 118 108C118 163.781 163.219 209 219 209ZM219 216C278.647 216 327 167.647 327 108C327 48.3532 278.647 0 219 0C159.353 0 111 48.3532 111 108C111 167.647 159.353 216 219 216Z" fill="#F4F9DA"/>
<circle cx="220.5" cy="107.5" r="103.5" fill="#B9E4D8"/>
<path d="M71.0208 284L133.521 262.35L158 225.054L127 226.5L90.8125 178L8 213.161L71.0208 284Z" fill="#E3FCFE"/>
<path d="M272.679 310.435C320 252 304.29 200.138 293.753 181.435C255.5 213.5 212 191.5 212 191.5C212 191.5 187.5 218.5 190 237.5L171.5 235.5C139.344 236.208 139.328 252.511 143 264.5C143 264.5 133.91 262.526 128 262.5C122.696 262.477 114.5 264 114.5 264C62.3895 277.427 50.4428 335.531 50.9218 364.624C46.707 360.788 25.5 362.376 17 370.5C23 390 52.199 403.788 66.7274 404.427L74.8696 385.725L99.2964 373.736C102.809 377.732 109.259 385.725 106.96 385.725C104.661 385.725 96.5 398.073 96.5 407.5C118.888 415.573 147.192 399.792 159.166 385.725L152.461 373.736C158.975 369.516 149.747 340.647 144.318 326.74C217.12 350.909 260.226 325.94 272.679 310.435Z" fill="url(#paint0_radial_1074_12)" stroke="#6F322F" stroke-width="6"/>
<path fill-rule="evenodd" clip-rule="evenodd" d="M65.9292 211.99C67.0034 211.123 68.5774 211.29 69.4449 212.364L78.1981 223.201L81.7323 219.667C82.7086 218.691 84.2915 218.691 85.2679 219.667C86.2442 220.644 86.2442 222.226 85.2679 223.203L77.802 230.669L65.5552 215.506C64.6877 214.432 64.8551 212.858 65.9292 211.99Z" fill="#263B52"/>
<path fill-rule="evenodd" clip-rule="evenodd" d="M93.7063 204.84L90.9463 217.95C90.6619 219.301 89.336 220.166 87.9849 219.881C86.6338 219.597 85.7691 218.271 86.0535 216.92L87.2935 211.03L79.4283 212.398C78.068 212.635 76.7735 211.724 76.5369 210.363C76.3003 209.003 77.2113 207.709 78.5716 207.472L93.7063 204.84Z" fill="#263B52"/>
<path fill-rule="evenodd" clip-rule="evenodd" d="M60.3974 216.602C61.6861 217.097 62.3289 218.544 61.8333 219.833L58.14 229.435H69.4999C70.8807 229.435 71.9999 230.554 71.9999 231.935C71.9999 233.316 70.8807 234.435 69.4999 234.435H50.8599L57.1666 218.038C57.6622 216.749 59.1087 216.106 60.3974 216.602Z" fill="#263B52"/>
<path d="M147.996 327.595L133 319.037C132.061 321.565 134.898 329.226 126.055 342.59C117.212 355.954 107.86 362.333 100 370L105.5 376.82L110 386.5C110 386.5 147.244 379.483 151 370C154.756 360.517 142.831 331.388 142.831 331.388L147.996 327.595Z" fill="url(#paint1_linear_1074_12)"/>
<path d="M80 384.211C64.1495 383.789 52.69 367.895 50.0126 360C49.6556 369.298 56.8668 387.474 75.7161 390L80 384.211Z" fill="#6F322F"/>
<path d="M151.153 370.515C136.334 382.887 114.083 386.641 105 383.5C112.587 390.762 132.781 387.968 151.136 376.28L151.153 370.515Z" fill="#6F322F"/>
<path d="M116.355 261.578C122.942 257.891 138.373 260.445 144.647 262.034L146.545 251.239L148.403 245.566L151.961 240.737C145.737 234.429 137.896 237.309 136.207 239.639C116.224 239.543 108.121 266.187 116.355 261.578Z" fill="#F9CEB6"/>
<path d="M73.0001 276.5L10.0001 206L2 218.5L70 290L94 266.5C108.5 250.333 130.499 224.166 129.5 223.5C126.5 221.5 125 223.5 122.5 223.5L73.0001 276.5Z" fill="#2C3E50"/>
<path fill-rule="evenodd" clip-rule="evenodd" d="M88.8025 173L127.303 221.545L154.5 220L155.5 226.5L124.309 229L86.7747 181.673L11.5821 214.18L9 207.5L88.8025 173Z" fill="#2C3E50"/>
<path d="M161.22 220.125C148.5 220.125 143.5 232 148 238C154 233.5 164.999 231.976 181.535 233.851C179.287 230.151 172.077 222.226 161.22 220.125Z" fill="#F9CEB6"/>
<path d="M133.5 319.5L148.5 327.5L144 333.5C144 333.5 141.219 328.523 139 326C136.719 323.406 133.5 319.5 133.5 319.5Z" fill="#6F322F" stroke="#6F322F" stroke-linejoin="round"/>
<path fill-rule="evenodd" clip-rule="evenodd" d="M265.152 204.184C261.444 201.08 246.5 199.4 236 201.5C226 205.5 224 211.5 221.5 218.5C219 225.5 219 238.5 219 243C192.5 234.5 151.686 240.677 151.686 240.677C151.686 240.677 155.148 238.399 152 240.465C147.912 243.147 145.324 248.261 144.464 252.793C143.71 256.766 143.761 264.023 144.464 267.5C159.972 276.11 180.095 278.228 199.134 280.549C218.798 282.946 232.137 284.815 243 282C252.729 279.479 263.501 268.789 266.963 257.905C270.439 246.978 271.206 233.923 270.957 223.071C270.71 212.362 268.615 207.084 265.152 204.184Z" fill="url(#paint2_radial_1074_12)"/>
<path d="M147.5 142.435C139 129.435 143.5 109.935 153 97.4351L234 71.4351L291 184C266.6 198.4 224 197.435 213 188.435C176.6 193.235 161 175.102 157.5 162.935C150.3 165.735 144.167 161.102 143 159.435C137 149.435 143.5 143.602 147.5 142.435Z" fill="#F9CEB6"/>
<path fill-rule="evenodd" clip-rule="evenodd" d="M168.342 133.391C166.082 134.334 164.46 136.393 163.778 138.067C163.153 139.601 161.402 140.338 159.868 139.713C158.334 139.088 157.596 137.338 158.222 135.803C159.373 132.977 162.001 129.536 166.032 127.854C170.285 126.079 175.53 126.494 181.22 130.477C182.578 131.427 182.908 133.298 181.958 134.655C181.007 136.013 179.137 136.343 177.779 135.393C173.47 132.376 170.381 132.541 168.342 133.391Z" fill="#811E0E"/>
<path d="M179.12 168.259C186.802 167.01 186.802 160.142 186.802 160.142C186.802 160.142 186.802 158.893 187.805 159.716C188.964 162.198 189.166 168.883 184.438 170.132C180.133 171.269 177.15 168.883 179.12 168.259Z" fill="#811E0E" stroke="#811E0E" stroke-width="2"/>
<path d="M155.5 122.935C152.5 123.435 151.5 119.435 152.5 117.935C154.5 116.435 161 115.435 166 115.935C170.478 116.383 177 121.935 177 122.935C177 123.935 171.5 121.435 167.5 120.435C164.3 119.635 158.167 121.768 155.5 122.935Z" fill="#811E0E"/>
<path fill-rule="evenodd" clip-rule="evenodd" d="M267 206C269.154 205.54 271.633 205.312 275.344 203.356C282.76 199.445 285.271 198.295 297.5 182.5C294.5 174.5 296.36 159.743 296.461 156.135C296.664 148.893 300.228 141.595 302.177 133.985C310.501 101.486 303.686 77.0199 291.488 59.7105C279.389 42.5422 262.168 32.6501 249.862 28.7615L249.71 28.7134L249.554 28.6793C238.247 26.2123 225.417 26.2337 215.023 27C204.98 27.7403 196.767 29.213 194.088 30.0205C173.546 34.2415 160.543 41.5773 152.766 50.26C145.477 58.3977 143.038 67.4305 143.041 75.4207C139.359 78.671 134.803 84.8762 132.5 92.1786C129.788 100.778 133.947 113.005 136 116C138.053 118.995 143 123 143 123C144.5 115 145.5 111.461 147.5 108.23C149.5 105 151.5 101.5 154.5 99C155.366 100.143 154.561 99.0867 155.693 100.027C158.425 102.297 162.139 104.388 166.57 106.059C174.98 109.23 186.305 111.015 199.272 109.425C201.146 111.972 203.681 114.621 206.333 117.102C209.722 120.271 213.511 123.358 216.861 125.87C218.105 126.803 219.815 126.803 221.06 125.871C222.304 124.939 222.784 123.297 222.238 121.841C221.094 118.791 221.478 116.415 222.469 114.372C223.254 112.755 226.326 110.5 228.5 110.5C234 110.5 235.741 115.048 238.184 119.048C240.636 123.065 241.381 128.841 236.904 137.433C234.865 138.694 233.617 140.865 232.885 142.849C231.943 145.401 231.521 148.493 231.59 151.66C231.725 157.927 233.818 165.435 239 170.559C241.322 172.854 241.786 175.268 241.241 178.049C240.645 181.091 238.835 184.451 236.517 188.007C235.649 189.34 234.759 190.628 233.874 191.908C233.593 192.314 233.313 192.719 233.035 193.124C231.907 194.765 230.793 196.427 229.923 197.985C229.085 199.485 228.277 201.224 228.054 202.989C227.802 204.977 228.177 206.251 228.177 206.251C228.177 206.251 231.5 203 237 201.5C238.161 200.548 246.5 200.5 246.5 200.5C254 201 256 200.5 267 206ZM225.969 100.061C225.969 100.061 225.962 100.077 225.939 100.109C225.956 100.078 225.969 100.061 225.969 100.061ZM203.03 101.663C203.03 101.663 203.03 101.665 203.03 101.668ZM139.175 108.23C137.421 103.519 137.78 98.7093 139.176 94.2841C140.224 90.962 141.83 87.9644 143.494 85.5433C143.245 86.7917 142.924 88.4235 142.559 90.323C141.713 94.7291 140.626 100.589 139.655 106.453C139.483 107.037 139.323 107.63 139.175 108.23Z" fill="#263B52"/>
<path d="M148.172 95.051C144.102 97.2142 141.712 107.208 141.025 111.935C132.442 99.9228 139.21 87.6702 143.667 83.0453C143.419 86.8462 146.567 92.6328 148.172 95.051Z" fill="#46727F"/>
<defs>
<radialGradient id="paint0_radial_1074_12" cx="0" cy="0" r="1" gradientUnits="userSpaceOnUse" gradientTransform="translate(87 296) rotate(-6.10685) scale(352.5 289.266)">
<stop stop-color="#FCF3D4"/>
<stop offset="0.63707" stop-color="#E07061"/>
<stop offset="0.889" stop-color="#6F322F"/>
</radialGradient>
<linearGradient id="paint1_linear_1074_12" x1="123.879" y1="121.34" x2="123.879" y2="387.875" gradientUnits="userSpaceOnUse">
<stop stop-color="#FCF3D4"/>
<stop offset="1" stop-color="#DE806A"/>
</linearGradient>
<radialGradient id="paint2_radial_1074_12" cx="0" cy="0" r="1" gradientUnits="userSpaceOnUse" gradientTransform="translate(169.08 210.25) rotate(40.9602) scale(134.964 121.237)">
<stop offset="0.434531" stop-color="#FCF5DB"/>
<stop offset="1" stop-color="#EB8368"/>
</radialGradient>
</defs>
</svg>
