<svg width="66" height="66" viewBox="0 0 66 66" fill="none" xmlns="http://www.w3.org/2000/svg">
<path d="M65.667 26.4698C65.6533 27.2704 65.3713 27.9487 64.821 28.5046C64.2707 29.0605 63.5943 29.3316 62.7918 29.3179C61.9894 29.3042 61.3234 29.0215 60.7939 28.4697C60.2644 27.918 60.0045 27.2428 60.0144 26.444C60.1085 20.9339 58.2696 16.2266 54.4979 12.3219C50.7261 8.41726 46.0843 6.41883 40.5723 6.32663C39.7717 6.31297 39.1057 6.03026 38.5743 5.4785C38.0429 4.92674 37.7831 4.25149 37.7949 3.45273C37.8066 2.65397 38.0893 1.98704 38.643 1.45192C39.1968 0.916797 39.872 0.657919 40.6688 0.675288C44.1538 0.734774 47.4276 1.46148 50.4904 2.8554C53.5531 4.24932 56.2179 6.10847 58.4846 8.43286C60.7514 10.7572 62.5309 13.4728 63.8233 16.5795C65.1157 19.6862 65.7302 22.983 65.667 26.4698ZM54.3643 26.2769C54.3506 27.0775 54.0686 27.7557 53.5183 28.3116C52.968 28.8675 52.2916 29.1386 51.4892 29.125C50.6867 29.1113 50.0207 28.8285 49.4912 28.2768C48.9617 27.7251 48.7018 27.0498 48.7117 26.251C48.7519 23.8963 47.9619 21.8807 46.3417 20.2043C44.7216 18.5278 42.7341 17.6695 40.3794 17.6293C39.5788 17.6157 38.9128 17.333 38.3814 16.7812C37.85 16.2294 37.5902 15.5542 37.6019 14.7554C37.6137 13.9567 37.8964 13.2897 38.4501 12.7546C39.0038 12.2195 39.6791 11.9606 40.4758 11.978C44.3839 12.0918 47.6805 13.5265 50.3658 16.282C53.051 19.0375 54.3839 22.3682 54.3643 26.274M63.4922 50.3872C63.4801 51.0936 63.3268 51.7977 63.0321 52.4993C62.7375 53.2008 62.3263 53.8298 61.7987 54.3861L51.5963 64.246C51.0223 64.7544 50.3797 65.1438 49.6685 65.4144C48.9572 65.6849 48.2484 65.8141 47.542 65.802C46.7885 65.7892 46.0722 65.6356 45.3932 65.3414C44.7142 65.0471 44.1211 64.6366 43.6138 64.1097L34.7954 54.9851C33.7307 53.8834 33.2007 52.5318 33.2054 50.9302C33.2102 49.3286 33.7624 47.9954 34.8622 46.9307L38.4546 43.4589L36.5104 41.4472L32.918 44.919C31.8163 45.9837 30.4884 46.5028 28.9343 46.4762C27.3802 46.4497 26.0708 45.8856 25.0061 44.7839L21.0482 40.6886C19.9836 39.587 19.4647 38.2468 19.4916 36.6682C19.5186 35.0896 20.0829 33.7689 21.1845 32.7061L24.7769 29.2343L22.8327 27.2226L19.2403 30.6944C18.1386 31.7591 16.7994 32.2779 15.2227 32.251C13.646 32.2241 12.3243 31.6598 11.2578 30.5581L2.43938 21.4335C1.88389 20.8587 1.47089 20.2157 1.20038 19.5044C0.929869 18.7932 0.800644 18.0844 0.812701 17.3779C0.824759 16.6715 0.977908 15.9788 1.27215 15.2998C1.56639 14.6208 2.00088 14.0045 2.57563 13.4509L12.778 3.59102C13.3057 3.03473 13.9137 2.63243 14.6019 2.38414C15.2902 2.13585 16.0101 2.01906 16.7617 2.03378C17.4681 2.04584 18.1723 2.18693 18.8743 2.45706C19.5763 2.7272 20.2051 3.15061 20.7605 3.72727L29.5789 12.8519C30.6436 13.9536 31.1625 15.2928 31.1356 16.8695C31.1087 18.4462 30.5444 19.7679 29.4427 20.8344L25.8503 24.3062L27.7945 26.318L31.3869 22.8462C32.4885 21.7815 33.8285 21.2739 35.4067 21.3235C36.9849 21.373 38.3054 21.9496 39.3682 23.0531L43.2566 27.0765C44.3213 28.1782 44.8402 29.5174 44.8133 31.0941C44.7864 32.6709 44.2221 33.9925 43.1204 35.0591L39.528 38.5309L41.4722 40.5426L45.0646 37.0708C46.1662 36.0061 47.5175 35.4987 49.1183 35.5487C50.7191 35.5986 52.0519 36.1754 53.1165 37.2789L61.9349 46.4036C62.4441 46.9304 62.8342 47.5382 63.1051 48.2268C63.3759 48.9155 63.505 49.6356 63.4922 50.3872ZM57.9114 50.292L54.9951 47.2744L44.7928 57.1343L47.7091 60.1519L57.9114 50.292ZM52.0094 44.1849L49.0931 41.1673L38.8907 51.0272L41.807 54.0448L52.0094 44.1849ZM25.4848 16.7391L22.5685 13.7215L12.3661 23.5814L15.2824 26.5991L25.4848 16.7391ZM19.5827 10.6321L16.6664 7.61449L6.46405 17.4744L9.38037 20.492L19.5827 10.6321Z" fill="currentColor"/>
</svg>
