<svg width="25" height="33" viewBox="0 0 25 33" fill="none" xmlns="http://www.w3.org/2000/svg">
<path fill-rule="evenodd" clip-rule="evenodd" d="M15.4167 32.5H9.25C8.01667 32.5 6.78025 30.6751 5.74425 28.0703L1.54167 32.5L0 30.875V24.375L3.67379 20.5026C3.29917 18.4031 3.08333 16.3426 3.08333 14.625C3.08333 8.125 7.70833 0 12.3333 0C16.9583 0 21.5833 8.125 21.5833 14.625C21.5833 16.3442 21.3675 18.4031 20.9929 20.5026L24.6667 24.375V30.875L23.125 32.5L18.9224 28.0703C17.8864 30.6751 16.6515 32.5 15.4167 32.5ZM12.3333 29.25H9.84354C9.74535 29.1199 9.65325 28.9849 9.56758 28.8454C9.03263 27.9809 8.45758 26.6273 7.93496 24.973C6.86813 21.5962 6.16667 17.4769 6.16667 14.625C6.16667 9.42825 9.9345 3.25 12.3333 3.25C14.7322 3.25 18.5 9.42825 18.5 14.625C18.5 17.4769 17.7985 21.5979 16.7317 24.973C16.2075 26.6273 15.634 27.9792 15.0975 28.8454C15.0124 28.9849 14.9208 29.1199 14.8231 29.25H12.3333ZM12.3333 16.25C13.1511 16.25 13.9353 15.9076 14.5136 15.2981C15.0918 14.6886 15.4167 13.862 15.4167 13C15.4167 12.138 15.0918 11.3114 14.5136 10.7019C13.9353 10.0924 13.1511 9.75 12.3333 9.75C11.5156 9.75 10.7313 10.0924 10.1531 10.7019C9.57485 11.3114 9.25 12.138 9.25 13C9.25 13.862 9.57485 14.6886 10.1531 15.2981C10.7313 15.9076 11.5156 16.25 12.3333 16.25Z" fill="black"/>
</svg>
