<svg width="28" height="28" viewBox="0 0 28 28" fill="none" xmlns="http://www.w3.org/2000/svg">
<path fill-rule="evenodd" clip-rule="evenodd" d="M23.2881 0.101099L23.6695 0.148967C24.6777 0.288084 26.012 0.475069 26.7674 1.23198C27.3867 1.84978 27.6245 2.85501 27.7666 3.75254L27.8504 4.32994C28.0389 5.69119 28.0882 7.47428 27.7666 9.45482C27.1324 13.3635 25.0517 18.0277 19.8267 21.6387C19.7983 21.92 19.7968 22.2042 19.8028 22.4884L19.8177 22.9132C19.8417 23.5669 19.8656 24.2206 19.6831 24.8549C19.3989 25.8422 18.3862 26.4929 17.4394 26.9596L16.9757 27.1795L16.3773 27.4427C15.2584 27.9184 13.7476 28.4061 12.8008 27.4577C12.2324 26.8908 11.999 26.0591 11.809 25.2318L11.7387 24.9222C11.6595 24.5312 11.5597 24.1448 11.4396 23.7644C11.3648 23.546 11.284 23.3231 11.1972 23.0987C11.1018 23.2159 11.0004 23.3283 10.8936 23.4353C10.3775 23.9514 9.60717 24.3119 8.97294 24.5647C8.28037 24.8384 7.49655 25.0778 6.77107 25.2752L6.39861 25.3739L5.68509 25.552L5.03889 25.7015L4.26554 25.8661L3.78239 25.9603C3.54142 26.0049 3.29322 25.9903 3.05919 25.9176C2.82516 25.8449 2.61233 25.7164 2.43904 25.5431C2.26576 25.3698 2.13723 25.1569 2.06454 24.9229C1.99185 24.6889 1.97717 24.4407 2.02179 24.1997L2.15043 23.555L2.38079 22.5108L2.56627 21.7479L2.70688 21.2094C2.90433 20.4854 3.14367 19.7016 3.4189 19.0105C3.6702 18.3747 4.0307 17.6044 4.54676 17.0883L4.66643 16.9731L4.57069 16.9342C4.31505 16.837 4.05612 16.7487 3.79436 16.6694L3.38001 16.5423C2.3419 16.2282 1.23199 15.8901 0.542409 15.199C-0.295259 14.3628 -0.0125462 13.0898 0.391329 12.0307L0.555871 11.6208L0.820634 11.0225L1.04052 10.5588C1.50722 9.61338 2.15791 8.60067 3.14516 8.31646C3.66871 8.16687 4.21319 8.15789 4.76066 8.17285L5.08975 8.18332C5.51756 8.19828 5.94387 8.21474 6.36121 8.17435C9.97216 2.94775 14.6362 0.866988 18.5448 0.232736C20.1128 -0.0244424 21.7083 -0.0687212 23.2881 0.101099ZM8.61095 19.0613C8.37552 18.8871 8.09416 18.7857 7.80169 18.7698C7.50923 18.7538 7.21851 18.824 6.96553 18.9716L6.80099 19.0823L6.66187 19.2064L6.47489 19.4428C6.08598 20.0052 5.86459 20.7831 5.69257 21.5101L5.53102 22.2102L5.45473 22.5288L5.74044 22.46L6.3657 22.3164C7.23029 22.1144 8.18912 21.8527 8.77848 21.3216C9.03473 21.0655 9.18932 20.7251 9.21353 20.3636C9.23774 20.002 9.12993 19.644 8.91011 19.356L8.78745 19.2154L8.75155 19.181L8.61095 19.0613ZM19.3555 8.6291C19.0778 8.35123 18.748 8.13079 18.3851 7.98038C18.0221 7.82996 17.6331 7.7525 17.2402 7.75243C16.8473 7.75237 16.4583 7.82968 16.0953 7.97997C15.7323 8.13026 15.4024 8.35058 15.1246 8.62835C14.8467 8.90612 14.6263 9.23589 14.4759 9.59885C14.3254 9.96181 14.248 10.3508 14.2479 10.7437C14.2479 11.1366 14.3252 11.5257 14.4755 11.8887C14.6257 12.2517 14.8461 12.5816 15.1238 12.8594C15.6848 13.4206 16.4457 13.736 17.2391 13.7361C18.0326 13.7362 18.7936 13.4212 19.3548 12.8602C19.9159 12.2992 20.2313 11.5383 20.2314 10.7448C20.2316 9.95131 19.9165 9.19027 19.3555 8.6291Z" fill="#FCF3D4"/>
</svg>

