<svg xmlns="http://www.w3.org/2000/svg" width="20" height="20" viewBox="0 0 20 20" fill="none">
<path d="M19.1304 9.13098H0.869551C0.389307 9.13098 0 9.52029 0 10.0005C0 10.4808 0.389307 10.8701 0.869551 10.8701H19.1304C19.6107 10.8701 20 10.4808 20 10.0005C20 9.52029 19.6107 9.13098 19.1304 9.13098Z" fill="#737373"/>
<path d="M0.869551 4.7828H19.1304C19.6107 4.7828 20 4.3935 20 3.91325C20 3.43301 19.6107 3.0437 19.1304 3.0437H0.869551C0.389307 3.0437 0 3.43301 0 3.91325C0 4.3935 0.389307 4.7828 0.869551 4.7828Z" fill="#737373"/>
<path d="M19.1304 15.2175H0.869551C0.389307 15.2175 0 15.6069 0 16.0871C0 16.5674 0.389307 16.9567 0.869551 16.9567H19.1304C19.6107 16.9567 20 16.5674 20 16.0871C20 15.6069 19.6107 15.2175 19.1304 15.2175Z" fill="#737373"/>
</svg>