<svg width="493" height="505" viewBox="0 0 493 505" fill="none" xmlns="http://www.w3.org/2000/svg">
<path d="M10.5 504C51.5 397 378 343.5 483 504" stroke="black" stroke-width="20" stroke-linecap="round"/>
<path d="M322 229.262V59.2052C322 59.2052 322 10.6055 268.579 10.0058C213 9.38189 213 59.2052 213 59.2052V229.262C213 229.262 213 276 268.579 276C322.01 276 322 229.262 322 229.262Z" stroke="black" stroke-width="20"/>
<path d="M268 196C268 196 268 300.55 268 401" stroke="black" stroke-width="20" stroke-linecap="round"/>
<path d="M213 304.724V190.927C213 190.927 213 158.405 175.262 158.004C136 157.586 136 190.927 136 190.927V304.724C136 304.724 136 336 175.262 336C213.007 336 213 304.724 213 304.724Z" stroke="black" stroke-width="20"/>
<path d="M176 267C176 267 175.501 335.34 175.022 401" stroke="black" stroke-width="20" stroke-linecap="round"/>
</svg>
