<svg width="491" height="506" viewBox="0 0 491 506" fill="none" xmlns="http://www.w3.org/2000/svg">
<path d="M308.5 229.262V59.2052C308.5 59.2052 308.5 10.6055 255.079 10.0058C199.5 9.38189 199.5 59.2052 199.5 59.2052V229.262C199.5 229.262 199.5 276 255.079 276C308.51 276 308.5 229.262 308.5 229.262Z" fill="#F8EFBE" stroke="#CDB344" stroke-width="20"/>
<path d="M254.5 196C254.5 196 254.5 300.55 254.5 401" stroke="#811E0E" stroke-width="20" stroke-linecap="round"/>
<path d="M199.5 304.724V190.927C199.5 190.927 199.5 158.405 161.762 158.004C122.5 157.586 122.5 190.927 122.5 190.927V304.724C122.5 304.724 122.5 336 161.762 336C199.507 336 199.5 304.724 199.5 304.724Z" fill="#F8EFBE" stroke="#CDB344" stroke-width="20"/>
<path d="M162.5 274.5C162.5 274.5 162.949 347.992 162.5 409.5" stroke="#811E0E" stroke-width="20" stroke-linecap="round"/>
<path d="M481 506C396.5 393.803 133.5 360.592 6 506H481Z" fill="#EF959D"/>
<path d="M9 506C72.5 414.041 333 343.957 483 506" stroke="#811E0E" stroke-width="20" stroke-linejoin="round"/>
</svg>
