<svg width="30" height="33" viewBox="0 0 30 33" fill="none" xmlns="http://www.w3.org/2000/svg">
<path fill-rule="evenodd" clip-rule="evenodd" d="M21.5277 5.48033C17.3707 2.17514 11.5137 2.19803 8.08909 5.40163C7.1743 6.25738 6.25782 7.43226 5.7328 8.9715C9.0728 7.31169 11.9981 6.47846 15.006 6.52275C17.9699 6.5664 20.8774 7.46194 24.1954 9.01099C23.5897 7.5806 22.5855 6.32134 21.5277 5.48033ZM7.35785 11.5159C7.80468 11.2991 8.23825 11.1014 8.66037 10.9221L9.38594 11.4142C9.3913 11.4062 9.39072 11.408 9.38711 11.4193C9.35731 11.5125 9.12088 12.2513 10.3215 13.4501L8.91274 14.889C7.71321 13.6913 7.30206 12.4793 7.35785 11.5159ZM3.0161 16.4433C3.3169 17.1487 3.71839 17.7879 4.22389 18.4048C3.59096 19.2394 3.10752 20.1528 2.98615 21.1719C2.89621 21.9271 3.01436 22.64 3.29265 23.3165C2.99463 23.5382 2.72802 23.7904 2.49208 24.0558C1.82287 24.8087 1.33269 25.7384 0.976849 26.6356C0.274709 28.406 -0.0392415 30.4023 0.00390269 31.5371L0.0587666 32.9801H1.50282H28.2462H29.7462V31.4801C29.7462 29.288 29.3011 27.2819 28.4614 25.7087C27.9729 24.7933 27.3238 23.9825 26.5224 23.3958C26.8758 22.6295 26.9966 21.8124 26.8045 20.9461C26.6166 20.0987 26.1516 19.3491 25.5816 18.6812C27.0681 16.7939 27.7811 14.2141 27.7811 11.731C27.7811 8.09612 25.5939 4.88054 23.3948 3.13209C18.2626 -0.948365 10.7177 -1.16536 6.03964 3.21079C4.22402 4.90925 2.28642 7.70742 2.28642 11.731C2.28642 13.5279 2.417 15.0384 3.0161 16.4433ZM6.41014 20.5036C6.49894 20.5368 6.59246 20.5714 6.69036 20.6072C9.72092 22.0698 12.2823 22.8532 14.9426 22.8393C17.5999 22.8254 20.1919 22.0161 23.2769 20.6036C23.6548 21.04 23.8232 21.359 23.8757 21.5955C23.9132 21.7647 23.9443 22.0994 23.3949 22.7445C20.1868 24.0886 17.5557 24.7176 14.9567 24.7176C12.3685 24.7176 9.69682 24.0938 6.40226 22.7601C5.97975 22.1731 5.93307 21.7956 5.96509 21.5267C5.99542 21.272 6.11603 20.9432 6.41014 20.5036ZM5.34395 25.5681C5.16078 25.6496 4.95762 25.7977 4.73433 26.0489C4.37829 26.4494 4.04637 27.0335 3.76554 27.7416C3.46458 28.5004 3.26175 29.2984 3.14087 29.9801H26.6562C26.5137 28.8331 26.2114 27.8643 25.8148 27.1213C25.3691 26.2862 24.8532 25.8123 24.3635 25.5909C20.9996 26.9816 18.0185 27.7176 14.9567 27.7176C11.8771 27.7176 8.82946 26.973 5.34395 25.5681Z" fill="black"/>
</svg>
