<svg width="29" height="29" viewBox="0 0 29 29" fill="none" xmlns="http://www.w3.org/2000/svg">
<path d="M24.8871 11.8644C24.8871 17.7671 20.1818 21.7797 14.1479 21.7797C8.11395 21.7797 3.40869 17.7671 3.40869 11.8644C3.40869 5.85413 8.22677 1 14.1479 1C20.069 1 24.8871 5.85413 24.8871 11.8644Z" stroke="currentColor" stroke-width="2"/>
<path d="M24.4784 9.01696C18.8436 4.27119 9.92177 4.27118 3.81738 9.01696C5.06956 6.80226 8.87532 1.42375 14.1479 1.42374C19.3131 1.42372 23.5392 6.48588 24.4784 9.01696Z" fill="currentColor" stroke="currentColor"/>
<path d="M24.4786 21.8305C20.722 27.0508 7.57415 27.0508 4.28717 21.8305C2.4087 23.2542 1.0002 25.6271 1 28H28C27.2958 24.2034 25.4177 22.9378 24.4786 21.8305Z" fill="currentColor" stroke="currentColor"/>
<g filter="url(#filter0_d_1047_9)">
<path d="M7.57394 10.9153C7.26089 11.8644 7.57392 13.2881 8.51307 13.7627" stroke="currentColor" stroke-width="2" stroke-linecap="round"/>
</g>
<defs>
<filter id="filter0_d_1047_9" x="2.45654" y="9.91498" width="11.0566" height="12.848" filterUnits="userSpaceOnUse" color-interpolation-filters="sRGB">
<feFlood flood-opacity="0" result="BackgroundImageFix"/>
<feColorMatrix in="SourceAlpha" type="matrix" values="0 0 0 0 0 0 0 0 0 0 0 0 0 0 0 0 0 0 127 0" result="hardAlpha"/>
<feOffset dy="4"/>
<feGaussianBlur stdDeviation="2"/>
<feComposite in2="hardAlpha" operator="out"/>
<feColorMatrix type="matrix" values="0 0 0 0 0 0 0 0 0 0 0 0 0 0 0 0 0 0 0.25 0"/>
<feBlend mode="normal" in2="BackgroundImageFix" result="effect1_dropShadow_1047_9"/>
<feBlend mode="normal" in="SourceGraphic" in2="effect1_dropShadow_1047_9" result="shape"/>
</filter>
</defs>
</svg>

